<svg width="24" height="25" viewBox="0 0 24 25" fill="none" xmlns="http://www.w3.org/2000/svg">
<path d="M12 2.22803C14.717 2.22803 15.056 2.23811 16.122 2.28852C17.187 2.33892 17.912 2.50728 18.55 2.7573C19.21 3.01336 19.766 3.36016 20.322 3.91967C20.8305 4.42363 21.224 5.03324 21.475 5.70608C21.722 6.34825 21.89 7.08016 21.94 8.15382C21.987 9.22848 22 9.57024 22 12.3093C22 15.0484 21.99 15.3902 21.94 16.4648C21.89 17.5385 21.722 18.2694 21.475 18.9126C21.2247 19.5858 20.8311 20.1955 20.322 20.699C19.822 21.2114 19.2173 21.6081 18.55 21.8614C17.913 22.1104 17.187 22.2797 16.122 22.3301C15.056 22.3775 14.717 22.3906 12 22.3906C9.283 22.3906 8.944 22.3805 7.878 22.3301C6.813 22.2797 6.088 22.1104 5.45 21.8614C4.78233 21.6088 4.17753 21.2121 3.678 20.699C3.16941 20.1951 2.77593 19.5855 2.525 18.9126C2.277 18.2704 2.11 17.5385 2.06 16.4648C2.013 15.3902 2 15.0484 2 12.3093C2 9.57024 2.01 9.22848 2.06 8.15382C2.11 7.07915 2.277 6.34926 2.525 5.70608C2.77524 5.03283 3.1688 4.42305 3.678 3.91967C4.17767 3.40676 4.78243 3.01006 5.45 2.7573C6.088 2.50728 6.812 2.33892 7.878 2.28852C8.944 2.24113 9.283 2.22803 12 2.22803ZM12 7.26868C10.6739 7.26868 9.40215 7.79974 8.46447 8.74505C7.52678 9.69036 7 10.9725 7 12.3093C7 13.6462 7.52678 14.9283 8.46447 15.8736C9.40215 16.8189 10.6739 17.35 12 17.35C13.3261 17.35 14.5979 16.8189 15.5355 15.8736C16.4732 14.9283 17 13.6462 17 12.3093C17 10.9725 16.4732 9.69036 15.5355 8.74505C14.5979 7.79974 13.3261 7.26868 12 7.26868ZM18.5 7.01665C18.5 6.68243 18.3683 6.3619 18.1339 6.12558C17.8995 5.88925 17.5815 5.75648 17.25 5.75648C16.9185 5.75648 16.6005 5.88925 16.3661 6.12558C16.1317 6.3619 16 6.68243 16 7.01665C16 7.35086 16.1317 7.67139 16.3661 7.90771C16.6005 8.14404 16.9185 8.27681 17.25 8.27681C17.5815 8.27681 17.8995 8.14404 18.1339 7.90771C18.3683 7.67139 18.5 7.35086 18.5 7.01665ZM12 9.28494C12.7956 9.28494 13.5587 9.60358 14.1213 10.1708C14.6839 10.7379 15 11.5072 15 12.3093C15 13.1114 14.6839 13.8807 14.1213 14.4479C13.5587 15.0151 12.7956 15.3337 12 15.3337C11.2044 15.3337 10.4413 15.0151 9.87868 14.4479C9.31607 13.8807 9 13.1114 9 12.3093C9 11.5072 9.31607 10.7379 9.87868 10.1708C10.4413 9.60358 11.2044 9.28494 12 9.28494Z" fill="white"/>
</svg>
