<svg width="21" height="21" viewBox="0 0 21 21" fill="none" xmlns="http://www.w3.org/2000/svg">
<path d="M15.4 20.6913C11.3173 20.6859 7.40331 19.0485 4.5164 16.1382C1.62949 13.2278 0.00529192 9.28198 0 5.16608C0 3.93616 0.484642 2.75662 1.34731 1.88694C2.20998 1.01726 3.38 0.52868 4.6 0.52868C4.85834 0.526696 5.11625 0.550333 5.37 0.599249C5.61531 0.635844 5.85647 0.696624 6.09 0.780712C6.25425 0.83881 6.40061 0.939123 6.51461 1.07173C6.62861 1.20434 6.7063 1.36465 6.74 1.53681L8.11 7.58559C8.14693 7.74978 8.14248 7.92067 8.09706 8.08268C8.05165 8.24469 7.96671 8.39266 7.85 8.51307C7.72 8.65421 7.71 8.66429 6.48 9.30949C7.46499 11.4879 9.1932 13.2373 11.35 14.2392C12 12.9892 12.01 12.9791 12.15 12.848C12.2694 12.7304 12.4162 12.6447 12.5769 12.599C12.7376 12.5532 12.9071 12.5487 13.07 12.5859L19.07 13.9671C19.2353 14.0057 19.3881 14.0862 19.5141 14.2008C19.64 14.3154 19.735 14.4605 19.79 14.6223C19.8744 14.8616 19.938 15.1079 19.98 15.3583C20.0202 15.6116 20.0403 15.8679 20.04 16.1245C20.0216 17.3491 19.5233 18.5167 18.654 19.3723C17.7847 20.2279 16.6149 20.7021 15.4 20.6913ZM4.6 2.54494C3.91125 2.5476 3.25146 2.8246 2.76443 3.31559C2.27741 3.80657 2.00263 4.47173 2 5.16608C2.00265 8.74805 3.41528 12.1826 5.92769 14.7154C8.44011 17.2482 11.8469 18.6724 15.4 18.675C16.0888 18.6724 16.7485 18.3954 17.2356 17.9044C17.7226 17.4134 17.9974 16.7482 18 16.0539V15.7212L13.36 14.6425L13.07 15.197C12.62 16.074 12.29 16.7092 11.45 16.3664C9.79288 15.7684 8.2887 14.8059 7.04673 13.5486C5.80477 12.2913 4.85622 10.7709 4.27 9.09778C3.91 8.31144 4.59 7.94852 5.45 7.49486L6 7.22266L4.93 2.54494H4.6Z" fill="white"/>
</svg>
