<svg width="24" height="25" viewBox="0 0 24 25" fill="none" xmlns="http://www.w3.org/2000/svg">
<path d="M22.1621 5.91338C21.3986 6.25382 20.589 6.4774 19.7601 6.57673C20.6338 6.04991 21.2878 5.22081 21.6001 4.24391C20.7801 4.73588 19.8811 5.08066 18.9441 5.26717C18.3147 4.58827 17.4804 4.13802 16.571 3.98642C15.6616 3.83482 14.728 3.99036 13.9153 4.42886C13.1026 4.86736 12.4564 5.56425 12.0772 6.41118C11.6979 7.25812 11.6068 8.20766 11.8181 9.11217C10.1552 9.02815 8.52838 8.59251 7.04334 7.83353C5.55829 7.07455 4.24818 6.0092 3.19805 4.70665C2.82634 5.35029 2.63101 6.08196 2.63205 6.82674C2.63205 8.28853 3.37005 9.57995 4.49205 10.336C3.82806 10.315 3.17869 10.1342 2.59805 9.80879V9.86121C2.59825 10.8348 2.93242 11.7783 3.5439 12.5318C4.15538 13.2853 5.00653 13.8025 5.95305 13.9956C5.33667 14.164 4.69036 14.1888 4.06305 14.0681C4.32992 14.9061 4.85006 15.639 5.55064 16.1642C6.25123 16.6893 7.09718 16.9804 7.97005 16.9968C7.10253 17.6836 6.10923 18.1914 5.04693 18.491C3.98464 18.7906 2.87418 18.8762 1.77905 18.7428C3.69075 19.9823 5.91615 20.6403 8.18905 20.6381C15.8821 20.6381 20.0891 14.2133 20.0891 8.64138C20.0891 8.45991 20.0841 8.27643 20.0761 8.09699C20.8949 7.50034 21.6017 6.76123 22.1631 5.91439L22.1621 5.91338Z" fill="white"/>
</svg>
