<svg width="24" height="25" viewBox="0 0 24 25" fill="none" xmlns="http://www.w3.org/2000/svg">
<path d="M21.543 6.76221C22 8.55869 22 12.3089 22 12.3089C22 12.3089 22 16.0592 21.543 17.8557C21.289 18.8487 20.546 19.63 19.605 19.8941C17.896 20.374 12 20.374 12 20.374C12 20.374 6.107 20.374 4.395 19.8941C3.45 19.6259 2.708 18.8457 2.457 17.8557C2 16.0592 2 12.3089 2 12.3089C2 12.3089 2 8.55869 2.457 6.76221C2.711 5.7692 3.454 4.9879 4.395 4.72377C6.107 4.2439 12 4.2439 12 4.2439C12 4.2439 17.896 4.2439 19.605 4.72377C20.55 4.99193 21.292 5.77222 21.543 6.76221ZM10 15.8374L16 12.3089L10 8.78048V15.8374Z" fill="white"/>
</svg>
